<svg xmlns="http://www.w3.org/2000/svg" width="314" height="395" fill="none"><g filter="url(#a)"><path fill="url(#b)" fill-opacity=".26" d="M.696 24.177c0-13.255 10.745-24 24-24h265c13.255 0 24 10.745 24 24v345.927c0 13.255-10.745 24-24 24h-265c-13.255 0-24-10.745-24-24V24.176Z"/><path stroke="url(#c)" stroke-opacity=".8" stroke-width="1.5" d="M1.446 24.177c0-12.841 10.41-23.25 23.25-23.25h265c12.841 0 23.25 10.409 23.25 23.25v345.927c0 12.841-10.409 23.25-23.25 23.25h-265c-12.84 0-23.25-10.409-23.25-23.25V24.176Z"/></g><defs><linearGradient id="b" x1="-166.864" x2="343.859" y1="-134.944" y2="314.68" gradientUnits="userSpaceOnUse"><stop/><stop offset="1" stop-opacity="0"/></linearGradient><linearGradient id="c" x1="262.581" x2="103.618" y1="128.934" y2="83.906" gradientUnits="userSpaceOnUse"><stop stop-color="#fff" stop-opacity=".31"/><stop offset="1" stop-color="#fff" stop-opacity=".1"/></linearGradient><filter id="a" width="411" height="491.928" x="-48.304" y="-48.824" color-interpolation-filters="sRGB" filterUnits="userSpaceOnUse"><feFlood flood-opacity="0" result="BackgroundImageFix"/><feGaussianBlur in="BackgroundImageFix" stdDeviation="24.5"/><feComposite in2="SourceAlpha" operator="in" result="effect1_backgroundBlur_1_4937"/><feBlend in="SourceGraphic" in2="effect1_backgroundBlur_1_4937" result="shape"/></filter></defs></svg>