<svg width="93" height="29" viewBox="0 0 93 29" fill="none" xmlns="http://www.w3.org/2000/svg">
<path fill-rule="evenodd" clip-rule="evenodd" d="M15.213 0.134399C18.275 0.134399 21.0987 1.71022 22.598 4.25583L29.2643 15.4036C32.5456 20.8935 28.4418 27.7579 21.8793 27.7579H8.54657C1.97509 27.7579 -2.12869 20.8935 1.15704 15.4036L7.82795 4.25583C9.32723 1.71022 12.1509 0.134399 15.213 0.134399ZM4.59508 20.0635C6.40097 24.1128 10.5938 26.7205 15.2084 26.6646V26.6732C18.2066 26.6561 21.0748 25.5035 23.1814 23.4692C25.2879 21.4349 26.46 18.6857 26.4395 15.8271C26.4428 11.4269 23.6576 7.46095 19.3893 5.78785C15.1209 4.11476 10.2154 5.06613 6.97173 8.19609C3.72808 11.326 2.78919 16.0143 4.59508 20.0635Z" fill="#00D2D3"/>
<path d="M92.8594 17.1801C92.8594 15.8141 92.4526 14.948 91.5668 14.4525C90.6809 13.9569 89.4561 13.9267 88.2404 13.9267H83.3005C81.4926 13.9267 80.9277 13.5691 80.9277 12.4487V12.4056C80.9277 11.0439 81.6463 10.85 84.2993 10.85H88.5161C89.4968 10.8759 89.9126 10.8888 90.5499 11.4921L90.8753 11.8109C91.0212 11.9731 91.2342 12.0664 91.4583 12.0664C91.6824 12.0664 91.8954 11.9731 92.0413 11.8109C92.306 11.6001 92.3845 11.2437 92.2312 10.9491C92.2312 10.9491 92.2312 10.9491 92.2312 10.9276C91.6843 9.86752 90.4233 9.28578 88.5522 9.23407H84.6563C82.505 9.23407 81.0407 9.484 80.2407 9.98386C79.5628 10.3932 79.269 10.9707 79.269 11.9057V12.634C79.269 13.6897 79.513 14.3964 80.0599 14.8489C80.6068 15.3014 81.4926 15.534 82.7717 15.534H88.5477C90.8075 15.534 91.1962 15.965 91.2007 17.0423C91.2007 18.5548 90.5182 18.697 87.3907 18.697C86.9794 18.697 83.3502 18.697 83.2553 18.697C82.1977 18.6711 81.7548 18.6582 81.0859 18.029L80.7469 17.7059C80.5965 17.546 80.3844 17.4511 80.1593 17.443C79.9399 17.4519 79.7325 17.5415 79.5808 17.6929C79.3206 17.9066 79.2445 18.2607 79.3955 18.5548C79.9605 19.6407 81.2757 20.231 83.2055 20.2784H87.802C88.8369 20.2784 90.116 20.2784 91.1284 19.8863C92.2944 19.4295 92.8594 18.5591 92.8594 17.1974V17.1715V17.1801Z" fill="#34303D"/>
<path fill-rule="evenodd" clip-rule="evenodd" d="M67.622 20.2999C66.3068 20.2999 64.6391 20.2181 63.3962 19.5545C62.1262 18.8779 61.507 17.68 61.507 15.9563V13.5518C61.507 11.8066 62.1624 10.613 63.3962 9.95367C64.6301 9.29437 66.3068 9.20819 67.622 9.20819H70.3338C71.6535 9.20819 73.2851 9.27283 74.5641 9.95367C75.8431 10.6345 76.4578 11.8282 76.4578 13.5518V15.9563C76.4578 17.6972 75.807 18.8909 74.5641 19.5545C73.3212 20.2181 71.6535 20.2999 70.3338 20.2999H67.622ZM64.2775 11.4317C63.5454 11.9273 63.1883 12.7632 63.1883 13.987H63.1838V15.5469C63.1838 16.7794 63.5409 17.6153 64.2685 18.1066C64.8786 18.5203 65.7328 18.7012 67.0435 18.7012H70.9213C72.2275 18.7012 73.0862 18.5116 73.6873 18.1066C74.4195 17.6067 74.7765 16.7707 74.7765 15.5469V13.987C74.7765 12.7589 74.4195 11.9229 73.6873 11.4317C73.0862 11.0137 72.232 10.8327 70.9213 10.8327H67.0526C65.7374 10.8327 64.8786 11.0223 64.2775 11.4317Z" fill="#34303D"/>
<path d="M39.691 20.2956C39.2288 20.2816 38.8632 19.9177 38.8684 19.4769V9.99676C38.8684 9.70887 39.0295 9.44285 39.291 9.29891C39.5525 9.15496 39.8746 9.15496 40.1361 9.29891C40.3976 9.44285 40.5587 9.70887 40.5587 9.99676V19.4769C40.5611 19.6925 40.4733 19.9001 40.3147 20.0538C40.156 20.2075 39.9397 20.2945 39.7136 20.2956" fill="#34303D"/>
<path d="M60.2144 20.9808L58.1399 18.9813C57.9404 18.7831 57.6591 18.679 57.3716 18.6969H49.2996C47.9844 18.6969 47.1347 18.516 46.5246 18.098C45.7924 17.6067 45.4353 16.7708 45.4353 15.5426V11.0051C45.4341 10.9598 45.4522 10.9159 45.4853 10.8835C45.5185 10.851 45.5641 10.8327 45.6116 10.8327H53.1548C54.4655 10.8327 55.3197 11.018 55.9208 11.4317C56.6529 11.923 57.01 12.7589 57.01 13.987V16.1847C57.0088 16.3653 57.0829 16.5389 57.2159 16.6674C57.349 16.7959 57.5302 16.8687 57.7196 16.8699H57.9953C58.1847 16.8687 58.3658 16.7959 58.4989 16.6674C58.632 16.5389 58.706 16.3653 58.7048 16.1847V13.5475C58.7048 11.8238 58.0857 10.6259 56.8066 9.94937C55.5276 9.27283 53.896 9.18665 52.5763 9.18665H44.441C44.2516 9.18778 44.0705 9.26061 43.9374 9.3891C43.8043 9.5176 43.7303 9.69123 43.7315 9.8718V15.952C43.7315 17.6757 44.3506 18.8693 45.6206 19.5502C46.8906 20.231 48.5313 20.2956 49.8465 20.2956H56.7931C56.9812 20.2957 57.1617 20.367 57.2947 20.4939L58.9896 22.1356C59.1219 22.2622 59.3016 22.3334 59.489 22.3334C59.6764 22.3334 59.8561 22.2622 59.9884 22.1356L60.1827 21.946C60.4584 21.6779 60.4584 21.2489 60.1827 20.9808" fill="#34303D"/>
</svg>
